<svg id="svg" version="1.1" xmlns="http://www.w3.org/2000/svg" xmlns:xlink="http://www.w3.org/1999/xlink" width="400" height="400" viewBox="0, 0, 400,400"><g id="svgg"><path id="path0" d="M80.016 76.467 C 80.558 77.015,90.041 84.124,108.200 97.598 C 113.630 101.627,122.085 107.919,141.600 122.450 C 146.770 126.300,154.150 131.791,158.000 134.651 C 183.972 153.947,181.946 150.929,173.642 157.948 C 171.135 160.066,167.715 162.954,166.042 164.364 C 157.998 171.144,149.795 178.133,145.907 181.519 C 142.686 184.325,141.422 185.198,140.847 185.015 C 140.163 184.798,134.731 186.318,104.200 195.268 C 100.460 196.365,94.610 198.072,91.200 199.061 C 87.790 200.051,84.887 200.982,84.749 201.131 C 84.456 201.445,83.950 203.005,72.005 240.400 C 70.213 246.010,68.110 252.547,67.332 254.927 C 66.107 258.669,65.972 259.452,66.329 260.727 C 66.557 261.537,67.638 265.260,68.733 269.000 C 69.828 272.740,72.187 280.840,73.976 287.000 C 75.764 293.160,77.670 299.640,78.210 301.400 C 78.750 303.160,80.082 307.639,81.169 311.353 C 83.541 319.454,83.265 319.103,86.464 318.071 C 87.859 317.621,93.140 316.146,98.200 314.794 C 103.260 313.442,107.850 312.191,108.400 312.014 C 109.611 311.625,109.389 311.687,125.800 307.189 C 133.060 305.199,140.198 303.218,141.662 302.786 C 144.988 301.804,145.472 301.806,146.093 302.800 C 146.368 303.240,146.899 303.600,147.273 303.600 C 147.647 303.600,148.055 303.765,148.180 303.967 C 148.388 304.305,153.417 306.861,154.800 307.332 C 155.284 307.497,155.269 307.543,154.726 307.568 C 154.355 307.586,153.597 307.427,153.040 307.215 C 150.969 306.428,151.887 308.425,154.128 309.583 C 154.749 309.903,155.649 310.543,156.128 311.004 C 156.608 311.465,158.440 312.808,160.200 313.989 C 161.960 315.169,163.460 316.285,163.533 316.468 C 163.607 316.650,163.929 316.800,164.250 316.800 C 164.864 316.800,165.068 316.936,167.000 318.629 C 167.660 319.207,168.731 319.956,169.380 320.292 C 170.030 320.629,170.766 321.105,171.017 321.352 C 172.058 322.374,174.149 323.793,174.474 323.696 C 174.665 323.639,174.927 323.864,175.054 324.196 C 175.181 324.528,175.515 324.800,175.795 324.800 C 176.074 324.800,177.045 325.520,177.952 326.400 L 179.601 328.000 199.747 328.000 L 219.892 328.000 221.046 327.114 C 221.681 326.627,222.491 325.907,222.847 325.514 C 223.203 325.121,223.788 324.800,224.147 324.800 C 224.506 324.800,224.800 324.620,224.800 324.400 C 224.800 324.180,224.986 324.000,225.213 324.000 C 225.441 324.000,226.155 323.460,226.800 322.800 C 227.445 322.140,228.172 321.600,228.414 321.600 C 228.919 321.600,232.068 319.495,233.106 318.464 C 233.488 318.085,234.340 317.511,235.000 317.188 C 235.660 316.864,236.599 316.209,237.087 315.731 C 237.575 315.253,238.340 314.746,238.787 314.604 C 239.234 314.462,239.600 314.214,239.600 314.052 C 239.600 313.890,240.497 313.317,241.594 312.779 C 242.690 312.240,243.598 311.620,243.611 311.400 C 243.636 310.967,246.219 309.200,246.828 309.200 C 247.032 309.200,247.200 308.939,247.200 308.620 C 247.200 308.301,247.493 307.876,247.851 307.675 C 249.335 306.845,247.651 306.958,245.901 307.806 C 244.857 308.313,243.914 308.585,243.807 308.411 C 243.700 308.238,244.554 307.629,245.706 307.058 C 246.858 306.488,247.860 306.196,247.933 306.410 C 248.107 306.917,249.600 306.919,249.600 306.413 C 249.600 306.199,249.300 306.140,248.934 306.281 C 248.487 306.452,248.364 306.383,248.558 306.068 C 248.717 305.811,249.052 305.600,249.302 305.600 C 249.812 305.600,252.520 303.862,253.905 302.646 C 254.950 301.728,254.734 301.690,265.000 304.610 C 268.300 305.548,272.710 306.785,274.800 307.358 C 276.890 307.930,281.570 309.218,285.200 310.218 C 288.830 311.219,293.780 312.566,296.200 313.212 C 298.620 313.857,304.110 315.367,308.400 316.565 C 317.331 319.061,316.706 319.176,317.959 314.800 C 318.431 313.150,319.173 310.628,319.607 309.196 C 320.041 307.764,320.643 305.694,320.944 304.596 C 321.246 303.498,322.344 299.720,323.383 296.200 C 324.422 292.680,325.963 287.460,326.807 284.600 C 327.652 281.740,328.730 278.140,329.204 276.600 C 329.678 275.060,330.215 273.260,330.397 272.600 C 330.579 271.940,331.114 270.050,331.587 268.400 C 332.059 266.750,332.593 264.860,332.774 264.200 C 332.954 263.540,333.388 262.191,333.738 261.203 C 334.369 259.419,334.362 259.371,332.814 254.803 C 331.957 252.271,329.333 244.260,326.983 237.000 C 324.633 229.740,322.213 222.270,321.604 220.400 C 320.995 218.530,319.365 213.490,317.981 209.200 C 314.960 199.831,316.211 201.212,308.800 199.064 C 305.390 198.075,298.820 196.155,294.200 194.796 C 263.007 185.622,259.937 184.766,259.132 185.022 C 258.601 185.190,257.265 184.271,254.299 181.697 C 252.045 179.740,249.030 177.153,247.600 175.947 C 220.884 153.421,220.400 152.995,220.400 151.986 C 220.400 150.823,222.694 148.851,232.200 141.843 C 237.040 138.274,244.510 132.745,248.800 129.555 C 253.090 126.364,259.120 121.885,262.200 119.601 C 265.280 117.317,272.660 111.827,278.600 107.402 C 284.540 102.977,291.920 97.487,295.000 95.201 C 319.477 77.042,321.494 75.493,319.800 76.159 C 319.360 76.332,314.680 78.088,309.400 80.062 C 304.120 82.036,298.720 84.084,297.400 84.615 C 296.080 85.145,291.760 86.759,287.800 88.200 C 283.840 89.641,280.240 90.987,279.800 91.191 C 279.360 91.394,275.040 93.029,270.200 94.823 C 261.280 98.129,249.868 102.375,244.400 104.423 C 242.750 105.042,240.159 106.009,238.641 106.574 L 235.883 107.600 200.037 107.600 L 164.191 107.600 155.595 104.361 C 150.868 102.579,145.830 100.698,144.400 100.181 C 142.970 99.664,139.100 98.231,135.800 96.996 C 132.500 95.761,128.540 94.297,127.000 93.742 C 125.460 93.187,123.660 92.492,123.000 92.196 C 122.340 91.901,119.730 90.920,117.200 90.016 C 114.670 89.113,112.240 88.210,111.800 88.009 C 111.360 87.809,109.015 86.930,106.590 86.055 C 104.164 85.180,101.734 84.278,101.190 84.050 C 100.645 83.822,95.880 82.024,90.600 80.054 C 85.320 78.085,80.640 76.332,80.200 76.159 C 79.478 75.876,79.460 75.906,80.016 76.467 M171.177 230.100 C 175.186 238.648,176.126 240.636,176.470 241.304 C 177.093 242.514,175.146 242.943,172.450 242.189 C 171.212 241.843,169.750 241.466,169.200 241.350 C 168.650 241.234,167.840 240.999,167.400 240.826 C 166.960 240.653,165.520 240.193,164.200 239.803 C 161.841 239.107,160.000 238.543,157.172 237.651 C 156.386 237.403,155.396 237.194,154.972 237.187 C 153.274 237.159,152.173 235.142,153.106 233.767 C 153.362 233.390,155.916 232.077,158.880 230.798 C 159.386 230.580,160.070 230.242,160.400 230.047 C 160.730 229.852,161.450 229.508,162.000 229.282 C 164.528 228.245,166.816 227.098,167.021 226.765 C 167.965 225.238,169.459 226.437,171.177 230.100 M235.555 228.039 C 237.450 228.941,239.990 230.137,241.200 230.696 C 247.082 233.417,246.992 233.355,247.129 234.772 C 247.298 236.514,247.057 236.704,243.561 237.582 C 241.932 237.990,239.160 238.791,237.400 239.361 C 235.640 239.931,233.570 240.565,232.800 240.770 C 232.030 240.974,230.191 241.512,228.714 241.964 C 223.652 243.512,222.805 242.727,225.000 238.517 C 225.770 237.040,226.400 235.599,226.400 235.316 C 226.400 235.032,226.580 234.800,226.800 234.800 C 227.020 234.800,227.200 234.451,227.200 234.024 C 227.200 233.597,227.380 233.136,227.600 233.000 C 227.820 232.864,228.000 232.403,228.000 231.976 C 228.000 231.549,228.135 231.199,228.300 231.199 C 228.465 231.198,228.943 230.343,229.362 229.299 C 230.770 225.790,230.810 225.782,235.555 228.039 M218.603 282.474 C 220.871 284.194,221.028 284.580,221.580 289.800 C 222.178 295.455,222.736 299.970,223.217 303.046 C 224.103 308.707,223.328 310.245,220.833 307.779 L 219.800 306.757 200.000 306.757 L 180.200 306.757 179.167 307.779 C 177.174 309.748,176.238 309.213,176.577 306.300 C 177.298 300.092,177.552 297.796,178.182 291.800 C 178.956 284.421,179.080 284.078,181.598 282.315 L 183.476 281.000 200.165 281.074 L 216.854 281.148 218.603 282.474 M219.600 308.800 C 220.050 309.091,219.850 309.188,218.800 309.188 C 217.750 309.188,217.550 309.091,218.000 308.800 C 218.330 308.587,218.690 308.412,218.800 308.412 C 218.910 308.412,219.270 308.587,219.600 308.800 M160.200 310.000 C 160.336 310.220,160.797 310.400,161.224 310.400 C 161.651 310.400,162.000 310.580,162.000 310.800 C 162.000 311.020,162.270 311.200,162.600 311.200 C 162.930 311.200,163.200 311.380,163.200 311.600 C 163.200 311.820,162.930 312.000,162.600 312.000 C 162.270 312.000,162.000 311.843,162.000 311.652 C 162.000 311.461,161.190 311.077,160.200 310.800 C 159.210 310.523,158.400 310.139,158.400 309.948 C 158.400 309.466,159.897 309.509,160.200 310.000 M179.379 310.700 C 179.063 311.305,178.798 312.880,178.790 314.200 C 178.772 317.216,178.188 316.372,177.890 312.900 C 177.696 310.633,177.747 310.400,178.438 310.400 C 178.857 310.400,179.200 310.220,179.200 310.000 C 179.200 309.780,179.369 309.600,179.576 309.600 C 179.783 309.600,179.694 310.095,179.379 310.700 M221.200 310.000 C 221.200 310.220,221.470 310.400,221.800 310.400 C 222.512 310.400,222.605 311.065,221.925 311.292 C 221.664 311.379,221.124 311.124,220.725 310.725 C 219.843 309.843,219.816 309.600,220.600 309.600 C 220.930 309.600,221.200 309.780,221.200 310.000 M240.800 310.200 C 240.250 310.514,239.350 310.781,238.800 310.792 C 238.097 310.806,237.958 310.913,238.334 311.150 C 238.755 311.418,238.720 311.545,238.167 311.757 C 236.969 312.217,236.720 311.374,237.892 310.826 C 238.501 310.541,239.270 310.159,239.600 309.977 C 239.930 309.796,240.560 309.643,241.000 309.638 C 241.704 309.629,241.680 309.697,240.800 310.200 M221.994 313.900 C 221.991 314.725,221.813 315.670,221.600 316.000 C 221.322 316.430,221.211 316.003,221.206 314.500 C 221.203 313.345,221.380 312.400,221.600 312.400 C 221.820 312.400,221.997 313.075,221.994 313.900 M171.200 315.200 C 171.750 315.630,172.470 315.989,172.800 315.997 C 173.326 316.010,173.327 316.058,172.811 316.385 C 172.486 316.590,172.126 316.610,172.011 316.429 C 171.895 316.248,171.083 315.718,170.206 315.250 C 169.136 314.680,168.873 314.403,169.406 314.409 C 169.843 314.414,170.650 314.770,171.200 315.200 M230.763 315.008 C 230.429 315.342,229.805 315.687,229.378 315.774 C 228.950 315.860,228.240 316.071,227.800 316.241 C 227.247 316.455,227.371 316.222,228.200 315.488 C 229.522 314.317,231.899 313.872,230.763 315.008 M175.424 317.387 C 175.851 317.710,175.990 317.980,175.733 317.987 C 174.973 318.008,174.000 317.542,174.000 317.157 C 174.000 316.633,174.542 316.721,175.424 317.387 M225.322 317.656 C 224.721 318.257,224.248 318.417,223.733 318.194 C 223.042 317.894,223.045 317.866,223.800 317.699 C 224.240 317.602,224.771 317.360,224.980 317.161 C 225.800 316.382,226.126 316.852,225.322 317.656 " stroke="none" fill="#e67e24" fill-rule="evenodd"></path><path id="path1" d="M178.700 0.273 C 176.555 0.359,174.800 0.602,174.800 0.814 C 174.800 1.027,173.551 1.200,172.024 1.200 C 170.497 1.200,169.136 1.380,169.000 1.600 C 168.864 1.820,167.773 2.000,166.576 2.000 C 165.379 2.000,164.400 2.180,164.400 2.400 C 164.400 2.620,163.399 2.800,162.176 2.800 C 160.796 2.800,160.047 2.952,160.200 3.200 C 160.351 3.444,159.737 3.600,158.624 3.600 C 157.621 3.600,156.800 3.780,156.800 4.000 C 156.800 4.220,156.001 4.400,155.024 4.400 C 154.047 4.400,153.136 4.580,153.000 4.800 C 152.864 5.020,152.144 5.200,151.400 5.200 C 150.656 5.200,149.936 5.380,149.800 5.600 C 149.664 5.820,149.034 6.000,148.400 6.000 C 147.766 6.000,147.136 6.180,147.000 6.400 C 146.864 6.620,146.223 6.800,145.576 6.800 C 144.929 6.800,144.400 6.980,144.400 7.200 C 144.400 7.420,143.871 7.600,143.224 7.600 C 142.577 7.600,141.936 7.780,141.800 8.000 C 141.664 8.220,141.055 8.400,140.448 8.400 C 139.452 8.400,136.715 9.140,134.600 9.982 C 134.160 10.157,133.297 10.503,132.681 10.750 C 132.066 10.998,131.211 11.200,130.781 11.200 C 130.352 11.200,130.000 11.380,130.000 11.600 C 130.000 11.820,129.651 12.000,129.224 12.000 C 128.797 12.000,128.358 12.144,128.249 12.321 C 128.140 12.497,127.139 12.890,126.025 13.193 C 124.911 13.496,124.000 13.892,124.000 14.072 C 124.000 14.253,123.728 14.400,123.395 14.400 C 123.062 14.400,122.432 14.580,121.995 14.800 C 121.558 15.020,120.842 15.380,120.405 15.600 C 119.968 15.820,119.338 16.000,119.005 16.000 C 118.672 16.000,118.400 16.180,118.400 16.400 C 118.400 16.620,118.040 16.800,117.600 16.800 C 117.160 16.800,116.800 16.980,116.800 17.200 C 116.800 17.420,116.547 17.600,116.238 17.600 C 115.929 17.600,114.984 17.946,114.138 18.370 C 113.292 18.793,112.015 19.377,111.300 19.667 C 110.585 19.958,110.000 20.331,110.000 20.498 C 110.000 20.664,109.640 20.800,109.200 20.800 C 108.760 20.800,108.397 20.935,108.394 21.100 C 108.390 21.265,107.490 21.840,106.394 22.379 C 105.297 22.917,104.400 23.502,104.400 23.679 C 104.400 23.855,104.040 24.000,103.600 24.000 C 103.160 24.000,102.800 24.180,102.800 24.400 C 102.800 24.620,102.558 24.800,102.261 24.800 C 101.669 24.800,100.251 25.511,97.800 27.038 C 96.920 27.586,95.885 28.137,95.500 28.264 C 95.115 28.390,94.800 28.652,94.800 28.847 C 94.800 29.041,94.613 29.200,94.384 29.200 C 93.910 29.200,91.469 30.845,91.267 31.300 C 91.193 31.465,90.912 31.600,90.642 31.600 C 90.372 31.600,89.802 31.915,89.375 32.300 C 88.949 32.685,88.105 33.255,87.500 33.568 C 86.895 33.880,86.400 34.285,86.400 34.468 C 86.400 34.650,86.106 34.800,85.747 34.800 C 85.388 34.800,84.803 35.117,84.447 35.505 C 84.091 35.893,83.126 36.658,82.303 37.205 C 81.479 37.752,80.804 38.335,80.803 38.500 C 80.801 38.665,80.622 38.800,80.405 38.800 C 80.053 38.800,79.294 39.336,77.855 40.600 C 77.605 40.820,76.680 41.534,75.800 42.187 C 74.920 42.840,73.752 43.785,73.204 44.287 C 72.656 44.789,72.077 45.200,71.917 45.200 C 71.758 45.200,71.028 45.785,70.296 46.500 C 69.563 47.215,67.804 48.790,66.387 50.000 C 64.969 51.210,62.597 53.460,61.117 55.000 C 59.636 56.540,58.284 57.935,58.112 58.101 C 53.799 62.259,49.600 66.545,49.600 66.788 C 49.600 66.962,48.925 67.803,48.100 68.657 C 47.275 69.512,45.975 71.019,45.210 72.006 C 44.446 72.993,43.717 73.890,43.589 74.000 C 43.462 74.110,42.827 74.916,42.179 75.792 C 40.725 77.755,39.949 78.732,39.300 79.416 C 39.025 79.706,38.800 80.136,38.800 80.371 C 38.800 80.607,38.665 80.801,38.500 80.803 C 38.335 80.804,37.750 81.479,37.200 82.303 C 36.650 83.126,35.885 84.149,35.500 84.575 C 35.115 85.002,34.800 85.587,34.800 85.875 C 34.800 86.164,34.650 86.400,34.468 86.400 C 34.285 86.400,33.880 86.895,33.568 87.500 C 33.255 88.105,32.685 88.949,32.300 89.375 C 31.915 89.802,31.600 90.372,31.600 90.642 C 31.600 90.912,31.465 91.193,31.300 91.267 C 30.845 91.469,29.200 93.910,29.200 94.384 C 29.200 94.613,29.041 94.800,28.847 94.800 C 28.652 94.800,28.390 95.115,28.264 95.500 C 28.048 96.160,26.614 98.725,25.365 100.686 C 25.054 101.173,24.800 101.848,24.800 102.186 C 24.800 102.524,24.632 102.800,24.426 102.800 C 24.220 102.800,23.827 103.420,23.553 104.179 C 23.279 104.937,22.903 105.464,22.717 105.349 C 22.532 105.234,22.425 105.289,22.479 105.470 C 22.621 105.940,21.465 108.400,21.102 108.400 C 20.936 108.400,20.800 108.760,20.800 109.200 C 20.800 109.640,20.664 110.000,20.498 110.000 C 20.331 110.000,19.958 110.585,19.667 111.300 C 19.377 112.015,18.793 113.292,18.370 114.138 C 17.946 114.984,17.600 115.929,17.600 116.238 C 17.600 116.547,17.420 116.800,17.200 116.800 C 16.980 116.800,16.800 117.160,16.800 117.600 C 16.800 118.040,16.620 118.400,16.400 118.400 C 16.180 118.400,16.000 118.679,16.000 119.019 C 16.000 119.360,15.640 120.384,15.200 121.294 C 14.760 122.205,14.400 123.186,14.400 123.475 C 14.400 123.764,14.253 124.000,14.072 124.000 C 13.892 124.000,13.496 124.911,13.193 126.025 C 12.890 127.139,12.497 128.140,12.321 128.249 C 12.144 128.358,12.000 128.797,12.000 129.224 C 12.000 129.651,11.820 130.000,11.600 130.000 C 11.380 130.000,11.200 130.352,11.200 130.781 C 11.200 131.211,10.998 132.066,10.750 132.681 C 10.503 133.297,10.157 134.160,9.982 134.600 C 9.199 136.568,8.400 139.420,8.400 140.248 C 8.400 140.745,8.220 141.264,8.000 141.400 C 7.780 141.536,7.600 142.267,7.600 143.024 C 7.600 143.781,7.420 144.400,7.200 144.400 C 6.980 144.400,6.800 144.929,6.800 145.576 C 6.800 146.223,6.620 146.864,6.400 147.000 C 6.180 147.136,6.000 147.766,6.000 148.400 C 6.000 149.034,5.820 149.664,5.600 149.800 C 5.380 149.936,5.200 150.656,5.200 151.400 C 5.200 152.144,5.020 152.864,4.800 153.000 C 4.580 153.136,4.400 154.047,4.400 155.024 C 4.400 156.001,4.220 156.800,4.000 156.800 C 3.780 156.800,3.600 157.509,3.600 158.376 C 3.600 159.243,3.420 160.064,3.200 160.200 C 2.980 160.336,2.800 161.326,2.800 162.400 C 2.800 163.474,2.620 164.464,2.400 164.600 C 2.180 164.736,2.000 165.827,2.000 167.024 C 2.000 168.221,1.820 169.200,1.600 169.200 C 1.372 169.200,1.200 170.389,1.200 171.967 C 1.200 173.824,1.036 174.788,0.700 174.900 C -0.032 175.144,-0.032 224.856,0.700 225.100 C 1.036 225.212,1.200 226.176,1.200 228.033 C 1.200 229.611,1.372 230.800,1.600 230.800 C 1.820 230.800,2.000 231.779,2.000 232.976 C 2.000 234.173,2.180 235.264,2.400 235.400 C 2.620 235.536,2.800 236.526,2.800 237.600 C 2.800 238.674,2.980 239.664,3.200 239.800 C 3.420 239.936,3.600 240.757,3.600 241.624 C 3.600 242.491,3.780 243.200,4.000 243.200 C 4.220 243.200,4.400 243.999,4.400 244.976 C 4.400 245.953,4.580 246.864,4.800 247.000 C 5.020 247.136,5.200 247.856,5.200 248.600 C 5.200 249.344,5.380 250.064,5.600 250.200 C 5.820 250.336,6.000 250.966,6.000 251.600 C 6.000 252.234,6.180 252.864,6.400 253.000 C 6.620 253.136,6.800 253.877,6.800 254.647 C 6.800 255.479,6.962 255.947,7.200 255.800 C 7.438 255.653,7.600 256.121,7.600 256.953 C 7.600 257.723,7.780 258.464,8.000 258.600 C 8.220 258.736,8.400 259.255,8.400 259.752 C 8.400 260.596,9.237 263.562,9.993 265.400 C 10.577 266.820,11.929 270.556,12.453 272.200 C 12.734 273.080,13.107 273.971,13.282 274.180 C 13.457 274.389,13.600 274.884,13.600 275.280 C 13.600 275.676,13.780 276.000,14.000 276.000 C 14.220 276.000,14.400 276.272,14.400 276.605 C 14.400 277.193,14.567 277.618,15.538 279.495 C 15.792 279.987,16.000 280.662,16.000 280.995 C 16.000 281.328,16.180 281.600,16.400 281.600 C 16.620 281.600,16.800 281.960,16.800 282.400 C 16.800 282.840,16.980 283.200,17.200 283.200 C 17.420 283.200,17.600 283.549,17.600 283.976 C 17.600 284.403,17.780 284.864,18.000 285.000 C 18.220 285.136,18.400 285.597,18.400 286.024 C 18.400 286.451,18.580 286.800,18.800 286.800 C 19.020 286.800,19.200 287.160,19.200 287.600 C 19.200 288.040,19.380 288.400,19.600 288.400 C 19.820 288.400,20.000 288.760,20.000 289.200 C 20.000 289.640,20.180 290.000,20.400 290.000 C 20.620 290.000,20.800 290.360,20.800 290.800 C 20.800 291.240,20.980 291.600,21.200 291.600 C 21.420 291.600,21.600 291.960,21.600 292.400 C 21.600 292.840,21.780 293.200,22.000 293.200 C 22.220 293.200,22.400 293.470,22.400 293.800 C 22.400 294.130,22.546 294.400,22.725 294.400 C 22.904 294.400,23.298 295.030,23.600 295.800 C 23.902 296.570,24.296 297.200,24.475 297.200 C 24.654 297.200,24.813 297.515,24.829 297.900 C 24.845 298.285,25.203 299.140,25.625 299.800 C 26.046 300.460,26.515 301.270,26.666 301.600 C 26.818 301.930,27.401 302.920,27.963 303.800 C 29.439 306.114,29.909 306.889,30.448 307.900 C 30.712 308.395,31.080 308.800,31.264 308.800 C 31.449 308.800,31.600 309.120,31.600 309.512 C 31.600 309.903,31.960 310.483,32.400 310.800 C 32.840 311.117,33.200 311.657,33.200 312.000 C 33.200 312.343,33.560 312.883,34.000 313.200 C 34.440 313.517,34.800 313.962,34.800 314.188 C 34.801 314.415,35.266 315.140,35.835 315.800 C 36.404 316.460,37.163 317.495,37.521 318.100 C 37.879 318.705,38.314 319.200,38.486 319.200 C 38.659 319.200,38.800 319.470,38.800 319.800 C 38.800 320.130,38.980 320.400,39.200 320.400 C 39.420 320.400,39.600 320.588,39.600 320.818 C 39.600 321.048,40.005 321.646,40.500 322.146 C 40.995 322.646,41.760 323.558,42.200 324.172 C 42.640 324.786,43.183 325.494,43.406 325.744 C 43.629 325.995,44.439 327.010,45.206 328.000 C 45.973 328.990,47.185 330.391,47.900 331.113 C 48.615 331.836,49.200 332.589,49.200 332.787 C 49.200 333.063,54.283 338.281,57.982 341.800 C 58.213 342.020,60.200 344.045,62.398 346.300 C 64.596 348.555,66.557 350.400,66.757 350.400 C 66.956 350.400,67.995 351.257,69.065 352.305 C 70.135 353.353,71.638 354.647,72.405 355.179 C 73.172 355.712,74.446 356.699,75.236 357.374 C 76.026 358.048,77.181 358.960,77.802 359.400 C 78.424 359.840,79.159 360.425,79.437 360.700 C 79.715 360.975,80.136 361.200,80.371 361.200 C 80.607 361.200,80.801 361.335,80.803 361.500 C 80.804 361.665,81.479 362.250,82.303 362.800 C 83.126 363.350,84.149 364.115,84.575 364.500 C 85.002 364.885,85.547 365.200,85.787 365.200 C 86.027 365.200,86.483 365.560,86.800 366.000 C 87.117 366.440,87.657 366.800,88.000 366.800 C 88.343 366.800,88.883 367.160,89.200 367.600 C 89.517 368.040,90.082 368.400,90.455 368.400 C 90.828 368.400,91.193 368.535,91.267 368.700 C 91.429 369.065,93.400 370.407,94.900 371.173 C 95.505 371.482,96.000 371.885,96.000 372.068 C 96.000 372.250,96.231 372.400,96.513 372.400 C 96.796 372.400,98.005 373.030,99.200 373.800 C 100.395 374.570,101.694 375.200,102.087 375.200 C 102.479 375.200,102.800 375.380,102.800 375.600 C 102.800 375.820,103.078 376.000,103.417 376.000 C 103.756 376.000,104.420 376.360,104.892 376.800 C 105.364 377.240,105.987 377.600,106.275 377.600 C 106.564 377.600,106.800 377.780,106.800 378.000 C 106.800 378.220,107.160 378.400,107.600 378.400 C 108.040 378.400,108.400 378.580,108.400 378.800 C 108.400 379.020,108.760 379.200,109.200 379.200 C 109.640 379.200,110.000 379.336,110.000 379.502 C 110.000 379.669,110.585 380.042,111.300 380.333 C 112.015 380.623,113.292 381.207,114.138 381.630 C 114.984 382.054,115.929 382.400,116.238 382.400 C 116.547 382.400,116.800 382.580,116.800 382.800 C 116.800 383.020,117.160 383.200,117.600 383.200 C 118.040 383.200,118.400 383.380,118.400 383.600 C 118.400 383.820,118.672 384.000,119.005 384.000 C 119.338 384.000,119.968 384.180,120.405 384.400 C 120.842 384.620,121.558 384.980,121.995 385.200 C 122.432 385.420,123.062 385.600,123.395 385.600 C 123.728 385.600,124.000 385.741,124.000 385.913 C 124.000 386.085,124.855 386.475,125.900 386.780 C 126.945 387.085,128.070 387.463,128.400 387.621 C 129.352 388.074,130.885 388.680,132.400 389.200 C 133.170 389.464,134.160 389.834,134.600 390.020 C 136.528 390.838,139.320 391.600,140.390 391.600 C 141.030 391.600,141.664 391.780,141.800 392.000 C 141.936 392.220,142.577 392.400,143.224 392.400 C 143.871 392.400,144.400 392.580,144.400 392.800 C 144.400 393.020,144.940 393.200,145.600 393.200 C 146.260 393.200,146.800 393.380,146.800 393.600 C 146.800 393.820,147.419 394.000,148.176 394.000 C 148.933 394.000,149.664 394.180,149.800 394.400 C 149.936 394.620,150.656 394.800,151.400 394.800 C 152.144 394.800,152.864 394.980,153.000 395.200 C 153.136 395.420,154.047 395.600,155.024 395.600 C 156.001 395.600,156.800 395.780,156.800 396.000 C 156.800 396.220,157.509 396.400,158.376 396.400 C 159.243 396.400,160.064 396.580,160.200 396.800 C 160.336 397.020,161.337 397.200,162.424 397.200 C 163.511 397.200,164.400 397.380,164.400 397.600 C 164.400 397.822,165.467 398.000,166.800 398.000 C 168.133 398.000,169.200 398.178,169.200 398.400 C 169.200 398.627,170.373 398.800,171.920 398.800 C 173.563 398.800,174.838 398.998,175.140 399.300 C 175.869 400.029,224.131 400.029,224.860 399.300 C 225.162 398.998,226.437 398.800,228.080 398.800 C 229.627 398.800,230.800 398.627,230.800 398.400 C 230.800 398.178,231.867 398.000,233.200 398.000 C 234.533 398.000,235.600 397.822,235.600 397.600 C 235.600 397.380,236.489 397.200,237.576 397.200 C 238.663 397.200,239.664 397.020,239.800 396.800 C 239.936 396.580,240.757 396.400,241.624 396.400 C 242.491 396.400,243.200 396.220,243.200 396.000 C 243.200 395.780,243.999 395.600,244.976 395.600 C 245.953 395.600,246.864 395.420,247.000 395.200 C 247.136 394.980,247.856 394.800,248.600 394.800 C 249.344 394.800,250.064 394.620,250.200 394.400 C 250.336 394.180,251.067 394.000,251.824 394.000 C 252.581 394.000,253.200 393.820,253.200 393.600 C 253.200 393.380,253.841 393.200,254.624 393.200 C 255.471 393.200,255.947 393.038,255.800 392.800 C 255.653 392.562,256.121 392.400,256.953 392.400 C 257.723 392.400,258.464 392.220,258.600 392.000 C 258.736 391.780,259.280 391.600,259.810 391.600 C 260.839 391.600,264.147 390.627,265.295 389.987 C 265.677 389.774,266.264 389.600,266.600 389.600 C 266.936 389.600,267.523 389.441,267.905 389.247 C 268.287 389.052,269.140 388.671,269.800 388.400 C 270.460 388.129,271.270 387.778,271.600 387.621 C 271.930 387.463,273.055 387.085,274.100 386.780 C 275.145 386.475,276.000 386.085,276.000 385.913 C 276.000 385.741,276.349 385.600,276.776 385.600 C 277.203 385.600,277.664 385.420,277.800 385.200 C 277.936 384.980,278.487 384.800,279.024 384.800 C 279.561 384.800,280.000 384.620,280.000 384.400 C 280.000 384.180,280.360 384.000,280.800 384.000 C 281.240 384.000,281.600 383.820,281.600 383.600 C 281.600 383.380,281.960 383.200,282.400 383.200 C 282.840 383.200,283.200 383.020,283.200 382.800 C 283.200 382.580,283.465 382.400,283.788 382.400 C 284.111 382.400,285.017 382.040,285.800 381.600 C 286.583 381.160,287.489 380.800,287.812 380.800 C 288.135 380.800,288.400 380.620,288.400 380.400 C 288.400 380.180,288.760 380.000,289.200 380.000 C 289.640 380.000,290.000 379.820,290.000 379.600 C 290.000 379.380,290.360 379.200,290.800 379.200 C 291.240 379.200,291.600 379.020,291.600 378.800 C 291.600 378.580,291.960 378.400,292.400 378.400 C 292.840 378.400,293.200 378.241,293.200 378.047 C 293.200 377.852,293.515 377.593,293.900 377.471 C 294.659 377.231,296.876 375.948,297.200 375.562 C 297.310 375.430,297.860 375.211,298.422 375.074 C 298.984 374.936,300.244 374.282,301.222 373.619 C 302.200 372.957,303.191 372.411,303.425 372.407 C 303.658 372.403,304.198 372.085,304.625 371.700 C 305.051 371.315,305.892 370.746,306.493 370.436 C 307.095 370.126,307.942 369.541,308.377 369.136 C 308.811 368.731,309.404 368.400,309.695 368.400 C 309.986 368.400,310.483 368.040,310.800 367.600 C 311.117 367.160,311.657 366.800,312.000 366.800 C 312.343 366.800,312.883 366.440,313.200 366.000 C 313.517 365.560,313.962 365.200,314.188 365.200 C 314.415 365.199,315.140 364.734,315.800 364.165 C 316.460 363.596,317.495 362.837,318.100 362.479 C 318.705 362.121,319.200 361.686,319.200 361.514 C 319.200 361.341,319.443 361.200,319.741 361.200 C 320.038 361.200,320.816 360.689,321.469 360.065 C 322.122 359.441,323.229 358.592,323.928 358.179 C 324.628 357.766,325.200 357.289,325.200 357.119 C 325.200 356.949,325.913 356.360,326.785 355.809 C 327.657 355.259,329.182 353.997,330.175 353.004 C 331.167 352.012,332.137 351.200,332.329 351.200 C 332.522 351.200,334.642 349.226,337.040 346.814 C 342.601 341.221,341.738 342.082,346.814 337.059 C 349.226 334.672,351.200 332.543,351.200 332.328 C 351.200 332.113,351.877 331.276,352.705 330.469 C 353.532 329.661,354.510 328.530,354.877 327.956 C 355.500 326.983,357.168 324.921,360.009 321.614 C 360.664 320.851,361.200 319.996,361.200 319.714 C 361.200 319.431,361.341 319.200,361.514 319.200 C 361.686 319.200,362.121 318.705,362.479 318.100 C 362.837 317.495,363.596 316.460,364.165 315.800 C 364.734 315.140,365.199 314.415,365.200 314.188 C 365.200 313.962,365.560 313.517,366.000 313.200 C 366.440 312.883,366.800 312.343,366.800 312.000 C 366.800 311.657,367.160 311.117,367.600 310.800 C 368.040 310.483,368.400 309.986,368.400 309.695 C 368.400 309.404,368.731 308.811,369.136 308.377 C 369.541 307.942,370.126 307.095,370.436 306.493 C 370.746 305.892,371.315 305.051,371.700 304.625 C 372.085 304.198,372.400 303.652,372.400 303.411 C 372.400 303.170,373.030 301.995,373.800 300.800 C 374.570 299.605,375.200 298.306,375.200 297.913 C 375.200 297.521,375.346 297.200,375.525 297.200 C 375.704 297.200,376.098 296.570,376.400 295.800 C 376.702 295.030,377.096 294.400,377.275 294.400 C 377.454 294.400,377.600 294.130,377.600 293.800 C 377.600 293.470,377.780 293.200,378.000 293.200 C 378.220 293.200,378.400 292.840,378.400 292.400 C 378.400 291.960,378.580 291.600,378.800 291.600 C 379.020 291.600,379.200 291.240,379.200 290.800 C 379.200 290.360,379.380 290.000,379.600 290.000 C 379.820 290.000,380.000 289.640,380.000 289.200 C 380.000 288.760,380.180 288.400,380.400 288.400 C 380.620 288.400,380.800 288.040,380.800 287.600 C 380.800 287.160,380.980 286.800,381.200 286.800 C 381.420 286.800,381.600 286.451,381.600 286.024 C 381.600 285.597,381.780 285.136,382.000 285.000 C 382.220 284.864,382.400 284.403,382.400 283.976 C 382.400 283.549,382.580 283.200,382.800 283.200 C 383.020 283.200,383.200 282.840,383.200 282.400 C 383.200 281.960,383.380 281.600,383.600 281.600 C 383.820 281.600,384.000 281.240,384.000 280.800 C 384.000 280.360,384.180 280.000,384.400 280.000 C 384.620 280.000,384.800 279.561,384.800 279.024 C 384.800 278.487,384.980 277.936,385.200 277.800 C 385.420 277.664,385.600 277.203,385.600 276.776 C 385.600 276.349,385.741 276.000,385.913 276.000 C 386.085 276.000,386.475 275.145,386.780 274.100 C 387.085 273.055,387.463 271.930,387.621 271.600 C 387.778 271.270,388.129 270.460,388.400 269.800 C 388.671 269.140,389.052 268.287,389.247 267.905 C 389.441 267.523,389.600 266.936,389.600 266.600 C 389.600 266.264,389.774 265.677,389.987 265.295 C 390.627 264.147,391.600 260.839,391.600 259.810 C 391.600 259.280,391.780 258.736,392.000 258.600 C 392.220 258.464,392.400 257.823,392.400 257.176 C 392.400 256.529,392.580 256.000,392.800 256.000 C 393.020 256.000,393.200 255.381,393.200 254.624 C 393.200 253.867,393.380 253.136,393.600 253.000 C 393.820 252.864,394.000 252.234,394.000 251.600 C 394.000 250.966,394.180 250.336,394.400 250.200 C 394.620 250.064,394.800 249.344,394.800 248.600 C 394.800 247.856,394.980 247.136,395.200 247.000 C 395.420 246.864,395.600 245.953,395.600 244.976 C 395.600 243.999,395.780 243.200,396.000 243.200 C 396.220 243.200,396.400 242.491,396.400 241.624 C 396.400 240.757,396.580 239.936,396.800 239.800 C 397.020 239.664,397.200 238.674,397.200 237.600 C 397.200 236.526,397.380 235.536,397.600 235.400 C 397.820 235.264,398.000 234.173,398.000 232.976 C 398.000 231.779,398.180 230.800,398.400 230.800 C 398.628 230.800,398.800 229.611,398.800 228.033 C 398.800 226.176,398.964 225.212,399.300 225.100 C 399.693 224.969,399.800 219.591,399.800 200.000 C 399.800 180.409,399.693 175.031,399.300 174.900 C 398.964 174.788,398.800 173.824,398.800 171.967 C 398.800 170.389,398.628 169.200,398.400 169.200 C 398.180 169.200,398.000 168.221,398.000 167.024 C 398.000 165.827,397.820 164.736,397.600 164.600 C 397.380 164.464,397.200 163.474,397.200 162.400 C 397.200 161.326,397.020 160.336,396.800 160.200 C 396.580 160.064,396.400 159.243,396.400 158.376 C 396.400 157.509,396.220 156.800,396.000 156.800 C 395.780 156.800,395.600 156.001,395.600 155.024 C 395.600 154.047,395.420 153.136,395.200 153.000 C 394.980 152.864,394.800 152.144,394.800 151.400 C 394.800 150.656,394.640 149.948,394.444 149.827 C 394.249 149.706,393.987 149.021,393.863 148.304 C 393.343 145.290,393.090 144.400,392.755 144.400 C 392.560 144.400,392.400 143.781,392.400 143.024 C 392.400 142.267,392.220 141.536,392.000 141.400 C 391.780 141.264,391.600 140.720,391.600 140.190 C 391.600 139.288,390.784 136.399,390.020 134.600 C 389.834 134.160,389.464 133.170,389.200 132.400 C 388.618 130.707,388.029 129.240,387.553 128.305 C 387.359 127.923,387.200 127.259,387.200 126.829 C 387.200 126.399,387.020 125.936,386.800 125.800 C 386.580 125.664,386.400 125.203,386.400 124.776 C 386.400 124.349,386.220 124.000,386.000 124.000 C 385.780 124.000,385.600 123.728,385.600 123.395 C 385.600 123.062,385.420 122.432,385.200 121.995 C 384.980 121.558,384.620 120.842,384.400 120.405 C 384.180 119.968,384.000 119.338,384.000 119.005 C 384.000 118.672,383.820 118.400,383.600 118.400 C 383.380 118.400,383.200 118.040,383.200 117.600 C 383.200 117.160,383.020 116.800,382.800 116.800 C 382.580 116.800,382.400 116.451,382.400 116.024 C 382.400 115.597,382.220 115.136,382.000 115.000 C 381.780 114.864,381.600 114.403,381.600 113.976 C 381.600 113.549,381.420 113.200,381.200 113.200 C 380.980 113.200,380.800 112.966,380.800 112.680 C 380.800 111.944,379.859 110.007,379.500 110.003 C 379.335 110.001,379.200 109.640,379.200 109.200 C 379.200 108.760,379.020 108.400,378.800 108.400 C 378.580 108.400,378.400 108.040,378.400 107.600 C 378.400 107.160,378.220 106.800,378.000 106.800 C 377.780 106.800,377.600 106.530,377.600 106.200 C 377.600 105.870,377.456 105.600,377.280 105.600 C 377.105 105.600,376.733 104.970,376.454 104.200 C 376.176 103.430,375.780 102.800,375.574 102.800 C 375.368 102.800,375.200 102.479,375.200 102.087 C 375.200 101.694,374.570 100.395,373.800 99.200 C 373.030 98.005,372.400 96.796,372.400 96.513 C 372.400 96.231,372.250 96.000,372.068 96.000 C 371.885 96.000,371.482 95.505,371.173 94.900 C 370.407 93.400,369.065 91.429,368.700 91.267 C 368.535 91.193,368.400 90.828,368.400 90.455 C 368.400 90.082,368.040 89.517,367.600 89.200 C 367.160 88.883,366.800 88.343,366.800 88.000 C 366.800 87.657,366.440 87.117,366.000 86.800 C 365.560 86.483,365.200 86.027,365.200 85.787 C 365.200 85.547,364.885 85.002,364.500 84.575 C 364.115 84.149,363.350 83.126,362.800 82.303 C 362.250 81.479,361.665 80.804,361.500 80.803 C 361.335 80.801,361.200 80.622,361.200 80.405 C 361.200 80.046,360.496 79.060,359.378 77.855 C 359.145 77.605,358.611 76.815,358.191 76.100 C 357.771 75.385,357.295 74.800,357.133 74.800 C 356.971 74.800,356.263 73.963,355.559 72.941 C 354.856 71.918,353.407 70.190,352.340 69.100 C 351.273 68.011,350.400 66.956,350.400 66.757 C 350.400 66.557,348.555 64.596,346.300 62.398 C 344.045 60.200,342.020 58.214,341.800 57.983 C 338.332 54.350,334.240 50.362,333.068 49.473 C 332.250 48.853,331.181 47.952,330.691 47.472 C 330.201 46.991,328.990 45.971,328.000 45.205 C 327.010 44.438,325.995 43.629,325.744 43.406 C 325.494 43.183,324.786 42.640,324.172 42.200 C 323.558 41.760,322.646 40.995,322.146 40.500 C 321.646 40.005,321.048 39.600,320.818 39.600 C 320.588 39.600,320.400 39.420,320.400 39.200 C 320.400 38.980,320.130 38.800,319.800 38.800 C 319.470 38.800,319.200 38.659,319.200 38.486 C 319.200 38.314,318.705 37.879,318.100 37.521 C 317.495 37.163,316.460 36.404,315.800 35.835 C 315.140 35.266,314.415 34.801,314.188 34.800 C 313.962 34.800,313.517 34.440,313.200 34.000 C 312.883 33.560,312.386 33.200,312.095 33.200 C 311.804 33.200,311.180 32.840,310.708 32.400 C 310.236 31.960,309.613 31.600,309.325 31.600 C 309.036 31.600,308.800 31.442,308.800 31.249 C 308.800 31.055,308.260 30.673,307.600 30.400 C 306.940 30.127,306.400 29.745,306.400 29.551 C 306.400 29.358,306.228 29.200,306.018 29.200 C 305.808 29.200,304.953 28.732,304.118 28.160 C 303.283 27.588,302.240 26.955,301.800 26.754 C 301.360 26.553,300.460 26.044,299.800 25.623 C 299.140 25.203,298.285 24.845,297.900 24.829 C 297.515 24.813,297.200 24.620,297.200 24.400 C 297.200 24.180,296.922 24.000,296.583 24.000 C 296.244 24.000,295.580 23.640,295.108 23.200 C 294.636 22.760,294.013 22.400,293.725 22.400 C 293.436 22.400,293.200 22.220,293.200 22.000 C 293.200 21.780,292.840 21.600,292.400 21.600 C 291.960 21.600,291.600 21.420,291.600 21.200 C 291.600 20.980,291.240 20.800,290.800 20.800 C 290.360 20.800,290.000 20.620,290.000 20.400 C 290.000 20.180,289.640 20.000,289.200 20.000 C 288.760 20.000,288.400 19.820,288.400 19.600 C 288.400 19.380,288.211 19.200,287.981 19.200 C 287.750 19.200,286.816 18.840,285.906 18.400 C 284.995 17.960,284.014 17.600,283.725 17.600 C 283.436 17.600,283.200 17.420,283.200 17.200 C 283.200 16.980,282.840 16.800,282.400 16.800 C 281.960 16.800,281.600 16.620,281.600 16.400 C 281.600 16.180,281.328 16.000,280.995 16.000 C 280.662 16.000,280.032 15.820,279.595 15.600 C 279.158 15.380,278.442 15.020,278.005 14.800 C 277.568 14.580,276.938 14.400,276.605 14.400 C 276.272 14.400,276.000 14.220,276.000 14.000 C 276.000 13.780,275.754 13.600,275.453 13.600 C 275.153 13.600,274.028 13.257,272.953 12.838 C 271.879 12.419,269.920 11.681,268.600 11.199 C 267.280 10.717,265.840 10.174,265.400 9.993 C 263.406 9.172,260.559 8.400,259.529 8.400 C 258.908 8.400,258.400 8.220,258.400 8.000 C 258.400 7.780,257.860 7.600,257.200 7.600 C 256.540 7.600,256.000 7.420,256.000 7.200 C 256.000 6.980,255.381 6.800,254.624 6.800 C 253.867 6.800,253.136 6.620,253.000 6.400 C 252.864 6.180,252.234 6.000,251.600 6.000 C 250.966 6.000,250.336 5.820,250.200 5.600 C 250.064 5.380,249.344 5.200,248.600 5.200 C 247.856 5.200,247.136 5.020,247.000 4.800 C 246.864 4.580,245.953 4.400,244.976 4.400 C 243.999 4.400,243.200 4.220,243.200 4.000 C 243.200 3.780,242.390 3.600,241.400 3.600 C 240.410 3.600,239.600 3.420,239.600 3.200 C 239.600 2.980,238.711 2.800,237.624 2.800 C 236.537 2.800,235.536 2.620,235.400 2.400 C 235.264 2.180,234.274 2.000,233.200 2.000 C 232.126 2.000,231.136 1.820,231.000 1.600 C 230.864 1.380,229.518 1.200,228.010 1.200 C 226.233 1.200,225.210 1.031,225.107 0.720 C 224.948 0.244,188.291 -0.109,178.700 0.273 M80.325 75.400 C 81.420 75.950,82.594 76.400,82.934 76.400 C 83.275 76.400,83.651 76.559,83.770 76.752 C 83.890 76.946,84.396 77.196,84.894 77.309 C 85.392 77.421,87.600 78.185,89.800 79.007 C 95.568 81.162,96.256 81.417,99.800 82.724 C 107.905 85.711,122.680 91.253,123.400 91.576 C 123.840 91.773,126.270 92.680,128.800 93.591 C 131.330 94.502,133.760 95.407,134.200 95.602 C 134.640 95.798,138.240 97.152,142.200 98.611 C 151.724 102.120,158.443 104.636,161.468 105.828 L 163.936 106.800 199.941 106.800 L 235.945 106.800 240.872 104.987 C 243.583 103.990,246.227 102.994,246.748 102.773 C 247.270 102.553,251.590 100.931,256.348 99.168 C 261.107 97.405,266.440 95.413,268.200 94.741 C 269.960 94.070,272.300 93.193,273.400 92.792 C 274.500 92.392,277.290 91.344,279.600 90.464 C 281.910 89.584,288.480 87.127,294.200 85.005 C 299.920 82.882,306.040 80.599,307.800 79.930 C 309.560 79.262,311.990 78.357,313.200 77.919 C 314.410 77.480,315.760 76.966,316.200 76.775 C 320.688 74.825,321.789 74.400,322.350 74.402 C 323.027 74.404,336.253 112.484,336.680 115.665 C 336.799 116.547,336.386 119.250,335.642 122.465 C 334.963 125.399,333.790 130.770,333.036 134.400 C 332.282 138.030,330.835 144.976,329.820 149.835 C 327.727 159.860,327.672 159.228,330.828 161.531 C 333.886 163.763,333.870 163.832,329.500 167.208 C 325.052 170.644,325.200 170.289,327.513 171.977 C 332.376 175.526,332.382 175.183,327.386 179.592 C 322.931 183.523,323.080 183.015,325.809 184.970 C 328.646 187.003,328.624 187.117,324.500 191.866 C 317.495 199.931,316.400 201.276,316.400 201.814 C 316.400 202.116,317.285 205.026,318.367 208.281 C 319.448 211.537,321.446 217.710,322.807 222.000 C 324.167 226.290,325.424 230.160,325.600 230.600 C 326.099 231.850,326.547 233.217,329.399 242.200 C 332.978 253.473,334.374 257.657,334.848 258.530 C 335.126 259.042,335.064 259.757,334.642 260.930 C 334.311 261.848,333.591 264.130,333.042 266.000 C 332.493 267.870,331.477 271.290,330.784 273.600 C 330.092 275.910,329.377 278.340,329.196 279.000 C 329.014 279.660,328.146 282.630,327.266 285.600 C 324.843 293.778,322.263 302.572,319.820 310.977 C 317.051 320.503,317.629 319.959,311.961 318.375 C 305.319 316.518,296.562 314.097,293.800 313.354 C 292.480 312.999,290.320 312.394,289.000 312.010 C 287.680 311.626,285.070 310.907,283.200 310.412 C 278.956 309.288,273.751 307.841,265.200 305.408 C 255.996 302.789,256.031 302.791,253.722 304.740 C 248.918 308.795,244.391 312.390,242.032 314.022 C 240.620 315.000,238.550 316.436,237.432 317.213 C 236.315 317.990,233.600 319.862,231.400 321.373 C 224.308 326.246,222.210 327.769,221.732 328.391 C 221.326 328.920,218.517 329.014,200.258 329.110 L 179.251 329.221 177.926 328.068 C 177.197 327.434,172.100 323.802,166.600 319.996 C 161.100 316.191,154.908 311.710,152.841 310.039 C 150.773 308.367,148.343 306.445,147.441 305.766 C 146.538 305.087,145.553 304.232,145.251 303.866 C 144.630 303.113,143.238 303.014,141.428 303.594 C 139.573 304.189,133.800 305.843,130.200 306.811 C 126.421 307.827,125.562 308.062,121.600 309.157 C 119.950 309.614,117.430 310.271,116.000 310.619 C 114.570 310.967,113.040 311.402,112.600 311.587 C 112.160 311.772,110.090 312.376,108.000 312.930 C 101.288 314.709,89.084 318.069,86.255 318.917 L 83.509 319.740 82.787 318.783 C 82.390 318.257,81.975 317.370,81.866 316.813 C 81.756 316.256,81.487 315.170,81.268 314.400 C 80.075 310.197,78.701 305.494,77.996 303.200 C 76.382 297.942,74.303 290.967,74.002 289.800 C 73.831 289.140,73.115 286.620,72.409 284.200 C 71.703 281.780,70.981 279.260,70.805 278.600 C 70.628 277.940,70.100 276.140,69.630 274.600 C 69.161 273.060,68.434 270.630,68.015 269.200 C 67.595 267.770,66.772 264.965,66.184 262.967 L 65.117 259.334 67.206 252.967 C 68.354 249.465,69.796 245.070,70.409 243.200 C 71.022 241.330,72.097 237.910,72.798 235.600 C 73.499 233.290,74.220 231.040,74.401 230.600 C 74.581 230.160,75.839 226.290,77.196 222.000 C 78.554 217.710,80.161 212.670,80.767 210.800 C 83.883 201.199,83.764 201.695,83.161 200.856 C 82.585 200.053,76.430 192.759,76.025 192.400 C 74.954 191.448,72.000 187.548,72.000 187.085 C 72.000 186.762,72.990 185.816,74.200 184.982 C 76.955 183.085,77.078 183.503,72.605 179.552 C 68.459 175.889,68.197 175.317,70.030 173.930 C 70.706 173.419,71.969 172.370,72.837 171.600 L 74.415 170.200 70.607 167.294 C 66.122 163.871,66.098 163.773,69.179 161.531 C 72.235 159.308,72.229 159.332,70.985 153.523 C 70.405 150.815,69.418 146.080,68.792 143.000 C 66.269 130.590,65.118 125.208,64.144 121.267 C 62.928 116.346,62.993 115.561,65.095 109.800 C 65.978 107.380,69.004 98.425,71.820 89.900 C 77.506 72.687,76.919 73.689,80.325 75.400 " stroke="none" fill="#047b83" fill-rule="evenodd"></path><path id="path2" d="M77.197 75.300 C 77.191 75.535,64.412 113.520,63.944 114.694 C 63.508 115.789,63.534 116.381,64.113 118.554 C 64.824 121.222,66.804 130.417,68.817 140.400 C 70.150 147.011,71.252 152.184,72.164 156.111 C 72.863 159.121,72.668 159.824,70.833 160.928 C 70.265 161.269,69.182 162.070,68.427 162.707 L 67.055 163.867 69.227 165.567 C 70.422 166.502,71.790 167.597,72.266 168.001 C 72.742 168.405,73.507 168.936,73.966 169.182 C 74.743 169.598,75.167 171.199,74.500 171.200 C 74.335 171.201,73.718 171.606,73.128 172.100 C 72.539 172.595,71.414 173.503,70.628 174.117 C 68.760 175.578,68.636 175.311,73.000 179.200 C 77.436 183.153,77.505 183.418,74.600 185.347 C 72.073 187.026,72.053 187.081,73.423 188.638 C 73.985 189.277,76.630 192.371,79.299 195.513 C 82.548 199.337,84.345 201.153,84.732 201.005 C 85.051 200.882,88.031 199.990,91.356 199.022 C 94.680 198.054,100.460 196.365,104.200 195.268 C 134.731 186.318,140.163 184.798,140.847 185.015 C 141.422 185.198,142.686 184.325,145.907 181.519 C 149.795 178.133,157.998 171.144,166.042 164.364 C 175.877 156.075,178.276 154.011,178.953 153.258 C 180.355 151.698,179.342 150.510,171.862 144.951 C 168.088 142.146,161.850 137.511,158.000 134.651 C 154.150 131.791,146.815 126.334,141.700 122.525 C 121.342 107.366,113.559 101.575,108.200 97.598 C 89.781 83.932,80.576 77.051,80.400 76.818 C 79.752 75.961,77.212 74.757,77.197 75.300 M320.789 75.877 C 320.245 76.249,319.710 76.669,319.600 76.810 C 319.421 77.039,311.580 82.901,295.000 95.201 C 291.920 97.487,284.540 102.977,278.600 107.402 C 272.660 111.827,265.280 117.317,262.200 119.601 C 259.120 121.885,253.090 126.364,248.800 129.555 C 244.510 132.745,237.040 138.274,232.200 141.843 C 222.694 148.851,220.400 150.823,220.400 151.986 C 220.400 152.995,220.884 153.421,247.600 175.947 C 249.030 177.153,252.045 179.740,254.299 181.697 C 257.265 184.271,258.601 185.190,259.132 185.022 C 259.937 184.766,263.007 185.622,294.200 194.796 C 298.820 196.155,305.320 198.058,308.644 199.025 C 311.969 199.991,314.945 200.881,315.258 201.001 C 315.753 201.191,318.677 198.107,323.000 192.836 C 323.440 192.299,324.655 190.900,325.700 189.726 C 328.056 187.079,328.062 187.169,325.405 185.324 C 322.805 183.519,322.711 182.984,324.700 181.309 C 325.525 180.614,327.280 179.042,328.600 177.815 L 331.000 175.585 329.767 174.492 C 327.721 172.680,325.818 171.215,325.500 171.207 C 324.290 171.178,325.646 169.435,328.550 167.283 C 333.368 163.715,333.286 163.943,330.482 161.920 C 327.200 159.550,327.077 159.299,327.824 156.510 C 328.164 155.239,328.612 153.300,328.819 152.200 C 329.026 151.100,329.366 149.390,329.575 148.400 C 329.784 147.410,331.048 141.290,332.385 134.800 C 333.722 128.310,335.192 121.603,335.653 119.896 C 336.668 116.132,336.787 116.754,332.823 105.200 C 331.049 100.030,328.130 91.390,326.336 86.000 C 322.446 74.312,322.618 74.625,320.789 75.877 M167.021 226.765 C 166.816 227.098,164.528 228.245,162.000 229.282 C 161.450 229.508,160.730 229.852,160.400 230.047 C 160.070 230.242,159.386 230.580,158.880 230.798 C 155.916 232.077,153.362 233.390,153.106 233.767 C 152.173 235.142,153.274 237.159,154.972 237.187 C 155.396 237.194,156.386 237.403,157.172 237.651 C 160.000 238.543,161.841 239.107,164.200 239.803 C 165.520 240.193,166.960 240.653,167.400 240.826 C 167.840 240.999,168.650 241.234,169.200 241.350 C 169.750 241.466,171.212 241.843,172.450 242.189 C 175.146 242.943,177.093 242.514,176.470 241.304 C 176.126 240.636,175.186 238.648,171.177 230.100 C 169.459 226.437,167.965 225.238,167.021 226.765 M230.511 226.900 C 230.298 227.175,229.781 228.254,229.362 229.299 C 228.943 230.343,228.465 231.198,228.300 231.199 C 228.135 231.199,228.000 231.549,228.000 231.976 C 228.000 232.403,227.820 232.864,227.600 233.000 C 227.380 233.136,227.200 233.597,227.200 234.024 C 227.200 234.451,227.020 234.800,226.800 234.800 C 226.580 234.800,226.400 235.032,226.400 235.316 C 226.400 235.599,225.770 237.040,225.000 238.517 C 222.805 242.727,223.652 243.512,228.714 241.964 C 230.191 241.512,232.030 240.974,232.800 240.770 C 233.570 240.565,235.640 239.931,237.400 239.361 C 239.160 238.791,241.932 237.990,243.561 237.582 C 247.057 236.704,247.298 236.514,247.129 234.772 C 246.992 233.355,247.082 233.417,241.200 230.696 C 239.990 230.137,237.450 228.941,235.555 228.039 C 231.867 226.285,231.118 226.116,230.511 226.900 M169.472 227.900 C 169.608 228.285,170.527 230.310,171.515 232.400 C 174.271 238.233,175.600 241.239,175.600 241.637 C 175.600 242.284,171.999 242.063,171.745 241.400 C 171.603 241.031,170.996 240.800,170.171 240.800 C 169.432 240.800,168.236 240.546,167.514 240.236 C 166.203 239.673,161.013 238.079,157.600 237.191 C 154.516 236.389,153.131 235.653,153.275 234.893 C 153.410 234.181,154.385 233.635,160.600 230.788 C 162.580 229.882,165.010 228.724,166.000 228.216 C 168.221 227.076,169.152 226.992,169.472 227.900 M235.492 228.839 C 237.422 229.740,240.350 231.104,242.000 231.869 C 243.650 232.635,245.405 233.458,245.900 233.698 C 247.777 234.610,246.435 236.800,244.000 236.800 C 243.581 236.800,242.824 236.964,242.319 237.164 C 241.813 237.364,240.320 237.832,239.000 238.204 C 234.617 239.438,233.810 239.692,232.486 240.248 C 231.764 240.552,230.765 240.800,230.266 240.800 C 229.768 240.800,229.189 240.970,228.980 241.178 C 228.553 241.602,224.944 241.878,224.580 241.513 C 224.450 241.384,224.533 240.945,224.764 240.539 C 225.662 238.956,230.800 227.915,230.800 227.568 C 230.800 226.879,231.982 227.199,235.492 228.839 M181.538 282.357 C 180.472 283.103,179.600 283.878,179.600 284.079 C 179.600 284.441,179.861 284.283,182.242 282.477 L 183.459 281.554 200.000 281.554 L 216.541 281.554 217.758 282.477 C 220.112 284.263,220.400 284.443,220.388 284.123 C 220.381 283.945,219.583 283.203,218.615 282.474 L 216.854 281.148 200.165 281.074 L 183.476 281.000 181.538 282.357 " stroke="none" fill="#733c14" fill-rule="evenodd"></path><path id="path3" d="M166.000 228.216 C 165.010 228.724,162.580 229.882,160.600 230.788 C 154.385 233.635,153.410 234.181,153.275 234.893 C 153.131 235.653,154.516 236.389,157.600 237.191 C 161.013 238.079,166.203 239.673,167.514 240.236 C 168.236 240.546,169.432 240.800,170.171 240.800 C 170.996 240.800,171.603 241.031,171.745 241.400 C 171.999 242.063,175.600 242.284,175.600 241.637 C 175.600 241.239,174.271 238.233,171.515 232.400 C 170.527 230.310,169.608 228.285,169.472 227.900 C 169.152 226.992,168.221 227.076,166.000 228.216 M230.800 227.568 C 230.800 227.915,225.662 238.956,224.764 240.539 C 224.533 240.945,224.450 241.384,224.580 241.513 C 224.944 241.878,228.553 241.602,228.980 241.178 C 229.189 240.970,229.768 240.800,230.266 240.800 C 230.765 240.800,231.764 240.552,232.486 240.248 C 233.810 239.692,234.617 239.438,239.000 238.204 C 240.320 237.832,241.813 237.364,242.319 237.164 C 242.824 236.964,243.581 236.800,244.000 236.800 C 246.435 236.800,247.777 234.610,245.900 233.698 C 245.405 233.458,243.650 232.635,242.000 231.869 C 240.350 231.104,237.422 229.740,235.492 228.839 C 231.982 227.199,230.800 226.879,230.800 227.568 M181.679 282.888 L 179.769 284.377 178.477 296.047 C 177.078 308.683,177.077 308.651,178.726 307.071 L 179.844 306.000 200.000 306.000 L 220.156 306.000 221.246 307.044 C 223.033 308.756,223.066 308.108,221.733 297.535 C 221.030 291.961,220.443 286.744,220.428 285.943 C 220.404 284.686,220.136 284.285,218.478 283.021 L 216.557 281.555 200.073 281.477 L 183.589 281.400 181.679 282.888 " stroke="none" fill="#2b211c" fill-rule="evenodd"></path><path id="path4" d="M71.820 89.900 C 69.004 98.425,65.978 107.380,65.095 109.800 C 62.993 115.561,62.928 116.346,64.144 121.267 C 65.118 125.208,66.269 130.590,68.792 143.000 C 69.418 146.080,70.405 150.815,70.985 153.523 C 72.229 159.332,72.235 159.308,69.179 161.531 C 66.098 163.773,66.122 163.871,70.607 167.294 L 74.415 170.200 72.837 171.600 C 71.969 172.370,70.706 173.419,70.030 173.930 C 68.197 175.317,68.459 175.889,72.605 179.552 C 77.078 183.503,76.955 183.085,74.200 184.982 C 72.990 185.816,72.000 186.762,72.000 187.085 C 72.000 187.548,74.954 191.448,76.025 192.400 C 76.430 192.759,82.585 200.053,83.161 200.856 C 83.764 201.695,83.883 201.199,80.767 210.800 C 80.161 212.670,78.554 217.710,77.196 222.000 C 75.839 226.290,74.581 230.160,74.401 230.600 C 74.220 231.040,73.499 233.290,72.798 235.600 C 72.097 237.910,71.022 241.330,70.409 243.200 C 69.796 245.070,68.354 249.465,67.206 252.967 L 65.117 259.334 66.184 262.967 C 66.772 264.965,67.595 267.770,68.015 269.200 C 68.434 270.630,69.161 273.060,69.630 274.600 C 70.100 276.140,70.628 277.940,70.805 278.600 C 70.981 279.260,71.703 281.780,72.409 284.200 C 73.115 286.620,73.831 289.140,74.002 289.800 C 74.303 290.967,76.382 297.942,77.996 303.200 C 78.701 305.494,80.075 310.197,81.268 314.400 C 81.487 315.170,81.756 316.256,81.866 316.813 C 81.975 317.370,82.390 318.257,82.787 318.783 L 83.509 319.740 86.255 318.917 C 89.084 318.069,101.288 314.709,108.000 312.930 C 110.090 312.376,112.160 311.772,112.600 311.587 C 113.040 311.402,114.570 310.967,116.000 310.619 C 117.430 310.271,119.950 309.614,121.600 309.157 C 125.562 308.062,126.421 307.827,130.200 306.811 C 133.800 305.843,139.573 304.189,141.428 303.594 C 143.238 303.014,144.630 303.113,145.251 303.866 C 145.553 304.232,146.538 305.087,147.441 305.766 C 148.343 306.445,150.773 308.367,152.841 310.039 C 154.908 311.710,161.100 316.191,166.600 319.996 C 172.100 323.802,177.197 327.434,177.926 328.068 L 179.251 329.221 200.258 329.110 C 218.517 329.014,221.326 328.920,221.732 328.391 C 222.210 327.769,224.308 326.246,231.400 321.373 C 233.600 319.862,236.315 317.990,237.432 317.213 C 238.550 316.436,240.620 315.000,242.032 314.022 C 244.391 312.390,248.918 308.795,253.722 304.740 C 256.031 302.791,255.996 302.789,265.200 305.408 C 273.751 307.841,278.956 309.288,283.200 310.412 C 285.070 310.907,287.680 311.626,289.000 312.010 C 290.320 312.394,292.480 312.999,293.800 313.354 C 296.562 314.097,305.319 316.518,311.961 318.375 C 317.629 319.959,317.051 320.503,319.820 310.977 C 322.263 302.572,324.843 293.778,327.266 285.600 C 328.146 282.630,329.014 279.660,329.196 279.000 C 329.377 278.340,330.092 275.910,330.784 273.600 C 331.477 271.290,332.493 267.870,333.042 266.000 C 333.591 264.130,334.311 261.848,334.642 260.930 C 335.064 259.757,335.126 259.042,334.848 258.530 C 334.374 257.657,332.978 253.473,329.399 242.200 C 326.547 233.217,326.099 231.850,325.600 230.600 C 325.424 230.160,324.167 226.290,322.807 222.000 C 321.446 217.710,319.448 211.537,318.367 208.281 C 317.285 205.026,316.400 202.116,316.400 201.814 C 316.400 201.276,317.495 199.931,324.500 191.866 C 328.624 187.117,328.646 187.003,325.809 184.970 C 323.080 183.015,322.931 183.523,327.386 179.592 C 332.382 175.183,332.376 175.526,327.513 171.977 C 325.200 170.289,325.052 170.644,329.500 167.208 C 333.870 163.832,333.886 163.763,330.828 161.531 C 327.672 159.228,327.727 159.860,329.820 149.835 C 330.835 144.976,332.282 138.030,333.036 134.400 C 333.790 130.770,334.963 125.399,335.642 122.465 C 336.386 119.250,336.799 116.547,336.680 115.665 C 336.253 112.484,323.027 74.404,322.350 74.402 C 321.789 74.400,320.688 74.825,316.200 76.775 C 315.760 76.966,314.410 77.480,313.200 77.919 C 311.990 78.357,309.560 79.262,307.800 79.930 C 306.040 80.599,299.920 82.882,294.200 85.005 C 288.480 87.127,281.910 89.584,279.600 90.464 C 277.290 91.344,274.500 92.392,273.400 92.792 C 272.300 93.193,269.960 94.070,268.200 94.741 C 266.440 95.413,261.107 97.405,256.348 99.168 C 251.590 100.931,247.270 102.553,246.748 102.773 C 246.227 102.994,243.583 103.990,240.872 104.987 L 235.945 106.800 199.941 106.800 L 163.936 106.800 161.468 105.828 C 158.443 104.636,151.724 102.120,142.200 98.611 C 138.240 97.152,134.640 95.798,134.200 95.602 C 133.760 95.407,131.330 94.502,128.800 93.591 C 126.270 92.680,123.840 91.773,123.400 91.576 C 122.680 91.253,107.905 85.711,99.800 82.724 C 96.256 81.417,95.568 81.162,89.800 79.007 C 87.600 78.185,85.392 77.421,84.894 77.309 C 84.396 77.196,83.890 76.946,83.770 76.752 C 83.651 76.559,83.275 76.400,82.934 76.400 C 82.594 76.400,81.420 75.950,80.325 75.400 C 76.919 73.689,77.506 72.687,71.820 89.900 M85.600 78.200 C 92.391 80.801,96.827 82.456,106.400 85.961 C 108.930 86.888,111.360 87.809,111.800 88.009 C 112.240 88.210,114.670 89.113,117.200 90.016 C 119.730 90.920,122.340 91.901,123.000 92.196 C 123.660 92.492,125.460 93.187,127.000 93.742 C 128.540 94.297,132.500 95.761,135.800 96.996 C 139.100 98.231,142.970 99.664,144.400 100.181 C 145.830 100.698,150.868 102.579,155.595 104.361 L 164.191 107.600 200.037 107.600 L 235.883 107.600 238.641 106.574 C 240.159 106.009,242.750 105.042,244.400 104.423 C 249.868 102.375,261.280 98.129,270.200 94.823 C 275.040 93.029,279.360 91.394,279.800 91.191 C 280.240 90.987,283.840 89.641,287.800 88.200 C 291.760 86.759,296.080 85.146,297.400 84.616 C 298.720 84.087,304.480 81.909,310.200 79.777 C 315.920 77.645,320.936 75.725,321.347 75.511 C 322.548 74.885,322.879 75.580,326.341 86.000 C 328.132 91.390,331.049 100.030,332.823 105.200 C 336.787 116.754,336.668 116.132,335.653 119.896 C 335.192 121.603,333.722 128.310,332.385 134.800 C 331.048 141.290,329.784 147.410,329.575 148.400 C 329.366 149.390,329.026 151.100,328.819 152.200 C 328.612 153.300,328.164 155.239,327.824 156.510 C 327.077 159.299,327.200 159.550,330.482 161.920 C 333.286 163.943,333.368 163.715,328.550 167.283 C 325.646 169.435,324.290 171.178,325.500 171.207 C 325.818 171.215,327.721 172.680,329.767 174.492 L 331.000 175.585 328.600 177.815 C 327.280 179.042,325.525 180.614,324.700 181.309 C 322.711 182.984,322.805 183.519,325.405 185.324 C 328.062 187.169,328.056 187.079,325.700 189.727 C 324.655 190.901,322.990 192.830,322.000 194.014 C 321.010 195.198,319.168 197.344,317.907 198.783 C 315.099 201.987,314.625 199.280,321.798 221.000 C 322.306 222.540,324.642 229.740,326.989 237.000 C 329.335 244.260,331.957 252.271,332.814 254.803 C 334.362 259.371,334.369 259.419,333.738 261.203 C 333.388 262.191,332.954 263.540,332.774 264.200 C 332.593 264.860,332.059 266.750,331.587 268.400 C 331.114 270.050,330.579 271.940,330.397 272.600 C 330.215 273.260,329.678 275.060,329.204 276.600 C 328.730 278.140,327.652 281.740,326.807 284.600 C 325.963 287.460,324.422 292.680,323.383 296.200 C 322.344 299.720,321.246 303.498,320.944 304.596 C 320.643 305.694,320.041 307.764,319.607 309.196 C 319.173 310.628,318.431 313.150,317.959 314.800 C 316.706 319.176,317.331 319.061,308.400 316.565 C 304.110 315.367,298.620 313.857,296.200 313.212 C 293.780 312.566,288.830 311.219,285.200 310.218 C 281.570 309.218,276.890 307.930,274.800 307.358 C 272.710 306.785,268.300 305.548,265.000 304.610 C 254.734 301.690,254.950 301.728,253.905 302.646 C 252.520 303.862,249.812 305.600,249.302 305.600 C 249.052 305.600,248.717 305.811,248.558 306.068 C 248.364 306.383,248.487 306.452,248.934 306.281 C 249.300 306.140,249.600 306.199,249.600 306.413 C 249.600 306.919,248.107 306.917,247.933 306.410 C 247.860 306.196,246.858 306.488,245.706 307.058 C 244.554 307.629,243.700 308.238,243.807 308.411 C 243.914 308.585,244.857 308.313,245.901 307.806 C 247.651 306.958,249.335 306.845,247.851 307.675 C 247.493 307.876,247.200 308.301,247.200 308.620 C 247.200 308.939,247.032 309.200,246.828 309.200 C 246.219 309.200,243.636 310.967,243.611 311.400 C 243.598 311.620,242.690 312.240,241.594 312.779 C 240.497 313.317,239.600 313.890,239.600 314.052 C 239.600 314.214,239.234 314.462,238.787 314.604 C 238.340 314.746,237.575 315.253,237.087 315.731 C 236.599 316.209,235.660 316.864,235.000 317.188 C 234.340 317.511,233.488 318.085,233.106 318.464 C 232.068 319.495,228.919 321.600,228.414 321.600 C 228.172 321.600,227.445 322.140,226.800 322.800 C 226.155 323.460,225.441 324.000,225.213 324.000 C 224.986 324.000,224.800 324.180,224.800 324.400 C 224.800 324.620,224.506 324.800,224.147 324.800 C 223.788 324.800,223.203 325.121,222.847 325.514 C 222.491 325.907,221.681 326.627,221.046 327.114 L 219.892 328.000 199.747 328.000 L 179.601 328.000 177.952 326.400 C 177.045 325.520,176.074 324.800,175.795 324.800 C 175.515 324.800,175.181 324.528,175.054 324.196 C 174.927 323.864,174.665 323.639,174.474 323.696 C 174.149 323.793,172.058 322.374,171.017 321.352 C 170.766 321.105,170.030 320.629,169.380 320.292 C 168.731 319.956,167.660 319.207,167.000 318.629 C 165.068 316.936,164.864 316.800,164.250 316.800 C 163.929 316.800,163.607 316.650,163.533 316.468 C 163.460 316.285,161.960 315.169,160.200 313.989 C 158.440 312.808,156.608 311.465,156.128 311.004 C 155.649 310.543,154.749 309.903,154.128 309.583 C 151.887 308.425,150.969 306.428,153.040 307.215 C 153.597 307.427,154.355 307.586,154.726 307.568 C 155.269 307.543,155.284 307.497,154.800 307.332 C 153.417 306.861,148.388 304.305,148.180 303.967 C 148.055 303.765,147.647 303.600,147.273 303.600 C 146.899 303.600,146.368 303.240,146.093 302.800 C 145.472 301.806,144.988 301.804,141.662 302.786 C 140.198 303.218,133.060 305.199,125.800 307.189 C 109.389 311.687,109.611 311.625,108.400 312.014 C 107.850 312.191,103.260 313.442,98.200 314.794 C 93.140 316.146,87.859 317.621,86.464 318.071 C 83.265 319.103,83.541 319.454,81.169 311.353 C 80.082 307.639,78.750 303.160,78.210 301.400 C 77.670 299.640,75.764 293.160,73.976 287.000 C 72.187 280.840,69.828 272.740,68.733 269.000 C 67.638 265.260,66.557 261.537,66.329 260.727 C 65.972 259.452,66.107 258.669,67.332 254.927 C 68.110 252.547,70.213 246.010,72.005 240.400 C 78.973 218.586,81.334 211.219,82.879 206.470 C 84.475 201.568,84.479 201.536,83.708 200.670 C 83.282 200.192,80.795 197.280,78.181 194.200 C 75.567 191.120,73.197 188.362,72.914 188.071 C 72.081 187.215,72.285 186.885,74.600 185.347 C 77.505 183.418,77.436 183.153,73.000 179.200 C 68.636 175.311,68.760 175.578,70.628 174.117 C 71.414 173.503,72.539 172.595,73.128 172.100 C 73.718 171.606,74.335 171.201,74.500 171.200 C 75.167 171.199,74.743 169.598,73.966 169.182 C 73.507 168.936,72.742 168.405,72.266 168.001 C 71.790 167.597,70.422 166.502,69.227 165.567 L 67.055 163.867 68.427 162.707 C 69.182 162.070,70.265 161.269,70.833 160.928 C 72.668 159.824,72.863 159.121,72.164 156.111 C 71.252 152.184,70.150 147.011,68.817 140.400 C 66.804 130.417,64.824 121.222,64.113 118.554 C 63.534 116.381,63.508 115.789,63.944 114.694 C 64.476 113.359,77.192 75.515,77.197 75.253 C 77.202 75.016,78.226 75.375,85.600 78.200 M179.091 284.800 C 178.963 285.130,178.555 288.280,178.184 291.800 C 177.552 297.801,177.294 300.130,176.577 306.300 C 176.238 309.213,177.174 309.748,179.167 307.779 L 180.200 306.757 200.000 306.757 L 219.800 306.757 220.833 307.779 C 221.402 308.340,222.281 308.800,222.787 308.800 C 223.913 308.800,223.909 308.733,222.003 293.600 C 221.767 291.730,221.464 288.979,221.328 287.487 C 221.074 284.689,220.388 283.327,220.416 285.676 C 220.424 286.404,221.014 291.649,221.726 297.332 C 223.075 308.091,223.041 308.764,221.246 307.044 L 220.156 306.000 200.000 306.000 L 179.844 306.000 178.726 307.071 C 177.076 308.651,177.076 308.636,178.407 296.598 C 179.543 286.329,179.727 283.161,179.091 284.800 M218.000 308.800 C 217.550 309.091,217.750 309.188,218.800 309.188 C 219.850 309.188,220.050 309.091,219.600 308.800 C 219.270 308.587,218.910 308.412,218.800 308.412 C 218.690 308.412,218.330 308.587,218.000 308.800 M158.400 309.948 C 158.400 310.139,159.210 310.523,160.200 310.800 C 161.190 311.077,162.000 311.461,162.000 311.652 C 162.000 311.843,162.270 312.000,162.600 312.000 C 162.930 312.000,163.200 311.820,163.200 311.600 C 163.200 311.380,162.930 311.200,162.600 311.200 C 162.270 311.200,162.000 311.020,162.000 310.800 C 162.000 310.580,161.651 310.400,161.224 310.400 C 160.797 310.400,160.336 310.220,160.200 310.000 C 159.897 309.509,158.400 309.466,158.400 309.948 M179.200 310.000 C 179.200 310.220,178.857 310.400,178.438 310.400 C 177.747 310.400,177.696 310.633,177.890 312.900 C 178.188 316.372,178.772 317.216,178.790 314.200 C 178.798 312.880,179.063 311.305,179.379 310.700 C 179.694 310.095,179.783 309.600,179.576 309.600 C 179.369 309.600,179.200 309.780,179.200 310.000 M220.000 309.800 C 220.000 310.278,221.493 311.436,221.925 311.292 C 222.605 311.065,222.512 310.400,221.800 310.400 C 221.470 310.400,221.200 310.220,221.200 310.000 C 221.200 309.780,220.930 309.600,220.600 309.600 C 220.270 309.600,220.000 309.690,220.000 309.800 M239.600 309.977 C 239.270 310.159,238.501 310.541,237.892 310.826 C 236.720 311.374,236.969 312.217,238.167 311.757 C 238.720 311.545,238.755 311.418,238.334 311.150 C 237.958 310.913,238.097 310.806,238.800 310.792 C 239.350 310.781,240.250 310.514,240.800 310.200 C 241.680 309.697,241.704 309.629,241.000 309.638 C 240.560 309.643,239.930 309.796,239.600 309.977 M221.206 314.500 C 221.211 316.003,221.322 316.430,221.600 316.000 C 222.112 315.208,222.112 312.400,221.600 312.400 C 221.380 312.400,221.203 313.345,221.206 314.500 M170.206 315.250 C 171.083 315.718,171.895 316.248,172.011 316.429 C 172.126 316.610,172.486 316.590,172.811 316.385 C 173.327 316.058,173.326 316.010,172.800 315.997 C 172.470 315.989,171.750 315.630,171.200 315.200 C 170.650 314.770,169.843 314.414,169.406 314.409 C 168.873 314.403,169.136 314.680,170.206 315.250 M228.200 315.488 C 227.371 316.222,227.247 316.455,227.800 316.241 C 228.240 316.071,228.950 315.860,229.378 315.774 C 229.805 315.687,230.429 315.342,230.763 315.008 C 231.899 313.872,229.522 314.317,228.200 315.488 M174.000 317.157 C 174.000 317.542,174.973 318.008,175.733 317.987 C 175.990 317.980,175.851 317.710,175.424 317.387 C 174.542 316.721,174.000 316.633,174.000 317.157 M224.980 317.161 C 224.771 317.360,224.240 317.602,223.800 317.699 C 223.045 317.866,223.042 317.894,223.733 318.194 C 224.248 318.417,224.721 318.257,225.322 317.656 C 226.126 316.852,225.800 316.382,224.980 317.161 " stroke="none" fill="#5a7356" fill-rule="evenodd"></path></g></svg>